<mxfile host="app.diagrams.net" modified="2024-04-11T15:58:43.529Z" agent="Mozilla/5.0 (Windows NT 10.0; Win64; x64) AppleWebKit/537.36 (KHTML, like Gecko) Chrome/121.0.0.0 Safari/537.36 OPR/107.0.0.0" version="24.2.3" etag="gVEsbMQPrX50iI5RPpwM" type="github">
  <diagram name="Страница — 1" id="YHzA0Y6Mt5jg1tyo0hIC">
    <mxGraphModel>
      <root>
        <mxCell id="0" />
        <mxCell id="1" parent="0" />
      </root>
    </mxGraphModel>
  </diagram>
</mxfile>
